<?xml version="1.0" standalone="no"?><!DOCTYPE svg PUBLIC "-//W3C//DTD SVG 1.1//EN" "http://www.w3.org/Graphics/SVG/1.1/DTD/svg11.dtd"><svg t="1598098278157" class="icon" viewBox="0 0 1024 1024" version="1.1" xmlns="http://www.w3.org/2000/svg" p-id="2874" xmlns:xlink="http://www.w3.org/1999/xlink" width="200" height="200"><defs><style type="text/css"></style></defs><path d="M686.208 106.666667c127.466667 0 231.146667 103.658667 231.146667 231.104v348.437333C917.333333 813.653333 813.653333 917.333333 686.208 917.333333H337.749333C210.346667 917.333333 106.666667 813.653333 106.666667 686.208V337.770667C106.666667 210.325333 210.346667 106.666667 337.792 106.666667h348.416zM661.333333 288a32 32 0 0 0-32 32c0 64.682667-52.629333 117.333333-117.333333 117.333333a117.461333 117.461333 0 0 1-117.333333-117.333333 32 32 0 1 0-64 0c0 99.989333 81.344 181.333333 181.333333 181.333333 99.989333 0 181.333333-81.344 181.333333-181.333333a32 32 0 0 0-32-32z" p-id="2875" fill="#ffd000"></path></svg>